<mxfile host="app.diagrams.net" modified="2023-06-23T02:42:29.090Z" agent="Mozilla/5.0 (Windows NT 10.0; Win64; x64) AppleWebKit/537.36 (KHTML, like Gecko) Chrome/114.0.0.0 Safari/537.36" etag="Wom7adFSRr1rZOg7i9bo" version="21.5.0" type="google">
  <diagram name="Page-1" id="X9H0Jpc1L9nfje0OqII_">
    <mxGraphModel grid="1" page="1" gridSize="10" guides="1" tooltips="1" connect="1" arrows="1" fold="1" pageScale="1" pageWidth="850" pageHeight="1100" math="0" shadow="0">
      <root>
        <mxCell id="0" />
        <mxCell id="1" parent="0" />
        <mxCell id="2UeZ1jJ89Ma1ybHRojLT-1" value="Seat" style="swimlane;fontStyle=1;align=center;verticalAlign=top;childLayout=stackLayout;horizontal=1;startSize=26;horizontalStack=0;resizeParent=1;resizeParentMax=0;resizeLast=0;collapsible=1;marginBottom=0;whiteSpace=wrap;html=1;" vertex="1" parent="1">
          <mxGeometry x="1050" y="70" width="370" height="178" as="geometry" />
        </mxCell>
        <mxCell id="2UeZ1jJ89Ma1ybHRojLT-2" value="- seatNumber : String&lt;br&gt;&lt;font color=&quot;#3399ff&quot;&gt;- availabityStatus: boolean&lt;/font&gt;" style="text;strokeColor=none;fillColor=none;align=left;verticalAlign=top;spacingLeft=4;spacingRight=4;overflow=hidden;rotatable=0;points=[[0,0.5],[1,0.5]];portConstraint=eastwest;whiteSpace=wrap;html=1;" vertex="1" parent="2UeZ1jJ89Ma1ybHRojLT-1">
          <mxGeometry y="26" width="370" height="44" as="geometry" />
        </mxCell>
        <mxCell id="2UeZ1jJ89Ma1ybHRojLT-3" value="" style="line;strokeWidth=1;fillColor=none;align=left;verticalAlign=middle;spacingTop=-1;spacingLeft=3;spacingRight=3;rotatable=0;labelPosition=right;points=[];portConstraint=eastwest;strokeColor=inherit;" vertex="1" parent="2UeZ1jJ89Ma1ybHRojLT-1">
          <mxGeometry y="70" width="370" height="8" as="geometry" />
        </mxCell>
        <mxCell id="2UeZ1jJ89Ma1ybHRojLT-4" value="&lt;div&gt;+ Seat(seatNumber : String&lt;font color=&quot;#3399ff&quot;&gt;, availabilityStatus: boolean&lt;/font&gt;)&lt;/div&gt;&lt;div&gt;&lt;br&gt;&lt;/div&gt;&lt;div&gt;+ getSeatNumber(&amp;nbsp; ) : String&lt;/div&gt;&lt;div&gt;&lt;br&gt;&lt;/div&gt;&lt;div&gt;&lt;font color=&quot;#3399ff&quot;&gt;+ getAvailabilityStatus(&amp;nbsp; ): boolean&lt;/font&gt;&lt;/div&gt;&lt;div&gt;&lt;br&gt;&lt;/div&gt;" style="text;strokeColor=none;fillColor=none;align=left;verticalAlign=top;spacingLeft=4;spacingRight=4;overflow=hidden;rotatable=0;points=[[0,0.5],[1,0.5]];portConstraint=eastwest;whiteSpace=wrap;html=1;" vertex="1" parent="2UeZ1jJ89Ma1ybHRojLT-1">
          <mxGeometry y="78" width="370" height="100" as="geometry" />
        </mxCell>
        <mxCell id="2UeZ1jJ89Ma1ybHRojLT-5" value="&lt;font color=&quot;#3399ff&quot;&gt;Movie&lt;/font&gt;" style="swimlane;fontStyle=1;align=center;verticalAlign=top;childLayout=stackLayout;horizontal=1;startSize=26;horizontalStack=0;resizeParent=1;resizeParentMax=0;resizeLast=0;collapsible=1;marginBottom=0;whiteSpace=wrap;html=1;" vertex="1" parent="1">
          <mxGeometry x="40" y="430" width="390" height="270" as="geometry" />
        </mxCell>
        <mxCell id="2UeZ1jJ89Ma1ybHRojLT-6" value="&lt;div&gt;- title : String &lt;br&gt;&lt;/div&gt;&lt;div&gt;- genre : String &lt;br&gt;&lt;/div&gt;&lt;div&gt;- duration : double &lt;br&gt;&lt;/div&gt;&lt;div&gt;- director : String&lt;/div&gt;" style="text;strokeColor=none;fillColor=none;align=left;verticalAlign=top;spacingLeft=4;spacingRight=4;overflow=hidden;rotatable=0;points=[[0,0.5],[1,0.5]];portConstraint=eastwest;whiteSpace=wrap;html=1;" vertex="1" parent="2UeZ1jJ89Ma1ybHRojLT-5">
          <mxGeometry y="26" width="390" height="84" as="geometry" />
        </mxCell>
        <mxCell id="2UeZ1jJ89Ma1ybHRojLT-7" value="" style="line;strokeWidth=1;fillColor=none;align=left;verticalAlign=middle;spacingTop=-1;spacingLeft=3;spacingRight=3;rotatable=0;labelPosition=right;points=[];portConstraint=eastwest;strokeColor=inherit;" vertex="1" parent="2UeZ1jJ89Ma1ybHRojLT-5">
          <mxGeometry y="110" width="390" height="8" as="geometry" />
        </mxCell>
        <mxCell id="2UeZ1jJ89Ma1ybHRojLT-8" value="&lt;div&gt;+ Movie(title : String, genre : String, duration : double, director : String)&amp;nbsp; &lt;br&gt;&lt;/div&gt;&lt;div&gt;&lt;br&gt;&lt;/div&gt;&lt;div&gt;+ getTitle(&amp;nbsp;&lt;font color=&quot;#3399ff&quot;&gt; &lt;/font&gt;) : String &lt;br&gt;&lt;/div&gt;&lt;div&gt;+ getGenre( &amp;nbsp;) : String &lt;br&gt;&lt;/div&gt;&lt;div&gt;+ getDuration( &amp;nbsp;) : double &lt;br&gt;&lt;/div&gt;&lt;div&gt;+ getDirector(&amp;nbsp; ) : String&lt;/div&gt;&lt;div&gt;&lt;br&gt;&lt;/div&gt;&lt;div&gt;&lt;br&gt;&lt;/div&gt;&lt;div&gt;&amp;nbsp;&amp;nbsp; &lt;/div&gt;" style="text;strokeColor=none;fillColor=none;align=left;verticalAlign=top;spacingLeft=4;spacingRight=4;overflow=hidden;rotatable=0;points=[[0,0.5],[1,0.5]];portConstraint=eastwest;whiteSpace=wrap;html=1;" vertex="1" parent="2UeZ1jJ89Ma1ybHRojLT-5">
          <mxGeometry y="118" width="390" height="152" as="geometry" />
        </mxCell>
        <mxCell id="2UeZ1jJ89Ma1ybHRojLT-9" value="MovieSchedule" style="swimlane;fontStyle=1;align=center;verticalAlign=top;childLayout=stackLayout;horizontal=1;startSize=26;horizontalStack=0;resizeParent=1;resizeParentMax=0;resizeLast=0;collapsible=1;marginBottom=0;whiteSpace=wrap;html=1;" vertex="1" parent="1">
          <mxGeometry x="165" y="50" width="520" height="250" as="geometry" />
        </mxCell>
        <mxCell id="2UeZ1jJ89Ma1ybHRojLT-10" value="&lt;font color=&quot;#007fff&quot;&gt;- movie: Movie&lt;br&gt;- STARTTIME: DateTime&lt;br&gt;- ENDTIME: DateTime&lt;br&gt;- totalSeats: int&lt;br&gt;- seat: Seat[]&lt;br&gt;&lt;/font&gt;" style="text;strokeColor=none;fillColor=none;align=left;verticalAlign=top;spacingLeft=4;spacingRight=4;overflow=hidden;rotatable=0;points=[[0,0.5],[1,0.5]];portConstraint=eastwest;whiteSpace=wrap;html=1;" vertex="1" parent="2UeZ1jJ89Ma1ybHRojLT-9">
          <mxGeometry y="26" width="520" height="84" as="geometry" />
        </mxCell>
        <mxCell id="2UeZ1jJ89Ma1ybHRojLT-11" value="" style="line;strokeWidth=1;fillColor=none;align=left;verticalAlign=middle;spacingTop=-1;spacingLeft=3;spacingRight=3;rotatable=0;labelPosition=right;points=[];portConstraint=eastwest;strokeColor=inherit;" vertex="1" parent="2UeZ1jJ89Ma1ybHRojLT-9">
          <mxGeometry y="110" width="520" height="8" as="geometry" />
        </mxCell>
        <mxCell id="2UeZ1jJ89Ma1ybHRojLT-12" value="&lt;div&gt;+ MovieSchedule(movie : Movie, startTime : DateTime, endTime : DateTime, totalSeats : int)&amp;nbsp; &lt;br&gt;&lt;/div&gt;&lt;div&gt;&lt;br&gt;&lt;/div&gt;&lt;div&gt;+ reserveSeat(&lt;font color=&quot;#3399ff&quot;&gt;seatNumber: Seat&lt;/font&gt;&amp;nbsp;) &lt;br&gt;&lt;/div&gt;&lt;div&gt;+ cancelSeatReservation(&lt;font color=&quot;#3399ff&quot;&gt;seatNumber: Seat&lt;/font&gt;)&amp;nbsp;&amp;nbsp; &lt;/div&gt;&lt;div&gt;&lt;br&gt;&lt;/div&gt;&lt;div&gt;&lt;font color=&quot;#3399ff&quot;&gt;+ getStartTime(): DateTime&lt;/font&gt;&lt;/div&gt;&lt;div&gt;&lt;font color=&quot;#3399ff&quot;&gt;+ getendTime(): DateTime&lt;/font&gt;&lt;/div&gt;&lt;div&gt;&lt;font color=&quot;#3399ff&quot;&gt;+ getTotalSeats(): int&lt;/font&gt;&lt;/div&gt;" style="text;strokeColor=none;fillColor=none;align=left;verticalAlign=top;spacingLeft=4;spacingRight=4;overflow=hidden;rotatable=0;points=[[0,0.5],[1,0.5]];portConstraint=eastwest;whiteSpace=wrap;html=1;" vertex="1" parent="2UeZ1jJ89Ma1ybHRojLT-9">
          <mxGeometry y="118" width="520" height="132" as="geometry" />
        </mxCell>
        <mxCell id="2UeZ1jJ89Ma1ybHRojLT-13" value="Theater" style="swimlane;fontStyle=1;align=center;verticalAlign=top;childLayout=stackLayout;horizontal=1;startSize=26;horizontalStack=0;resizeParent=1;resizeParentMax=0;resizeLast=0;collapsible=1;marginBottom=0;whiteSpace=wrap;html=1;" vertex="1" parent="1">
          <mxGeometry x="640" y="410" width="550" height="320" as="geometry" />
        </mxCell>
        <mxCell id="2UeZ1jJ89Ma1ybHRojLT-14" value="&lt;div&gt;- name : String &lt;br&gt;&lt;/div&gt;&lt;div&gt;- capacity : int &lt;font color=&quot;#3399ff&quot;&gt;&amp;gt;= 0&lt;/font&gt;&lt;br&gt;&lt;/div&gt;&lt;div&gt;- movieScheduleList : MovieSchedule[]&lt;/div&gt;&lt;div&gt;&lt;font color=&quot;#3399ff&quot;&gt;- ticket: Ticket&lt;/font&gt;&lt;/div&gt;&lt;div&gt;&lt;font color=&quot;#3399ff&quot;&gt;- availabeSeats: double&lt;/font&gt;&lt;/div&gt;&lt;div&gt;&lt;br&gt;&lt;/div&gt;" style="text;strokeColor=none;fillColor=none;align=left;verticalAlign=top;spacingLeft=4;spacingRight=4;overflow=hidden;rotatable=0;points=[[0,0.5],[1,0.5]];portConstraint=eastwest;whiteSpace=wrap;html=1;" vertex="1" parent="2UeZ1jJ89Ma1ybHRojLT-13">
          <mxGeometry y="26" width="550" height="74" as="geometry" />
        </mxCell>
        <mxCell id="2UeZ1jJ89Ma1ybHRojLT-15" value="" style="line;strokeWidth=1;fillColor=none;align=left;verticalAlign=middle;spacingTop=-1;spacingLeft=3;spacingRight=3;rotatable=0;labelPosition=right;points=[];portConstraint=eastwest;strokeColor=inherit;" vertex="1" parent="2UeZ1jJ89Ma1ybHRojLT-13">
          <mxGeometry y="100" width="550" height="8" as="geometry" />
        </mxCell>
        <mxCell id="2UeZ1jJ89Ma1ybHRojLT-16" value="&lt;div&gt;+ Theater(&amp;nbsp; )&amp;nbsp; &lt;br&gt;&lt;/div&gt;&lt;div&gt;&lt;br&gt;&lt;/div&gt;&lt;div&gt;&lt;font color=&quot;#3399ff&quot;&gt;+ accessMovieSchedule(movie: Movie, startTime: DateTime, endTime: DateTime)&lt;/font&gt;&lt;/div&gt;&lt;div&gt;&lt;br&gt;&lt;/div&gt;&lt;div&gt;+ addMovieSchedule(movie : Movie, startTime : DateTime, endTime : DateTime) &lt;br&gt;&lt;/div&gt;&lt;div&gt;&lt;font color=&quot;#3399ff&quot;&gt;+ removeMovieSchedule(movie: Movie, startTime: DateTime, endTime DateTime)&lt;/font&gt;&lt;/div&gt;&lt;div&gt;&lt;font color=&quot;#3399ff&quot;&gt;+ reserveSeat(startTime: DateTime, seatNumber: Seat)&lt;/font&gt;&lt;/div&gt;&lt;div&gt;+ cancelSeatReservation( &lt;font color=&quot;#3399ff&quot;&gt;ticket: Ticket&lt;/font&gt;&amp;nbsp;) : boolean &lt;br&gt;&lt;/div&gt;&lt;div&gt;&lt;font color=&quot;#3399ff&quot;&gt;+ validateTicket(ticket: Ticket): boolean&lt;/font&gt;&lt;/div&gt;&lt;div&gt;&lt;font color=&quot;#3399ff&quot;&gt;+ displayMovieSchedule(movie: Movie, startTime: DateTime, endTime: DateTime, capacity: int): void&lt;/font&gt;&lt;/div&gt;&lt;div&gt;+ getAvailableSeats(startTime : DateTime) &lt;br&gt;&lt;/div&gt;&lt;div&gt;+ getName(&amp;nbsp; ) : String &lt;br&gt;&lt;/div&gt;&lt;div&gt;+ getCapacity(&amp;nbsp; ) : int&lt;/div&gt;" style="text;strokeColor=none;fillColor=none;align=left;verticalAlign=top;spacingLeft=4;spacingRight=4;overflow=hidden;rotatable=0;points=[[0,0.5],[1,0.5]];portConstraint=eastwest;whiteSpace=wrap;html=1;" vertex="1" parent="2UeZ1jJ89Ma1ybHRojLT-13">
          <mxGeometry y="108" width="550" height="212" as="geometry" />
        </mxCell>
        <mxCell id="fQB4_j-KEd2w4DvYBhpt-10" value="&lt;font color=&quot;#3399ff&quot;&gt;0...*&lt;/font&gt;" style="html=1;verticalAlign=bottom;endArrow=diamond;edgeStyle=elbowEdgeStyle;elbow=vertical;curved=0;rounded=0;exitX=0.937;exitY=1.008;exitDx=0;exitDy=0;exitPerimeter=0;entryX=0.5;entryY=0;entryDx=0;entryDy=0;endFill=1;strokeColor=#3399FF;" edge="1" parent="1" source="2UeZ1jJ89Ma1ybHRojLT-12" target="2UeZ1jJ89Ma1ybHRojLT-13">
          <mxGeometry x="-0.0407" y="13" width="80" relative="1" as="geometry">
            <mxPoint x="690" y="390" as="sourcePoint" />
            <mxPoint x="770" y="390" as="targetPoint" />
            <Array as="points" />
            <mxPoint as="offset" />
          </mxGeometry>
        </mxCell>
        <mxCell id="fQB4_j-KEd2w4DvYBhpt-11" value="0...*" style="html=1;verticalAlign=bottom;endArrow=diamondThin;edgeStyle=elbowEdgeStyle;elbow=vertical;curved=0;rounded=0;entryX=0.5;entryY=0;entryDx=0;entryDy=0;exitX=0.135;exitY=0.985;exitDx=0;exitDy=0;exitPerimeter=0;strokeColor=#3399FF;endFill=1;fontColor=#3399FF;" edge="1" parent="1" source="2UeZ1jJ89Ma1ybHRojLT-12" target="2UeZ1jJ89Ma1ybHRojLT-5">
          <mxGeometry width="80" relative="1" as="geometry">
            <mxPoint x="250" y="310" as="sourcePoint" />
            <mxPoint x="330" y="310" as="targetPoint" />
          </mxGeometry>
        </mxCell>
        <mxCell id="fQB4_j-KEd2w4DvYBhpt-16" value="&lt;font color=&quot;#3399ff&quot;&gt;Ticket&lt;/font&gt;" style="swimlane;fontStyle=1;align=center;verticalAlign=top;childLayout=stackLayout;horizontal=1;startSize=26;horizontalStack=0;resizeParent=1;resizeParentMax=0;resizeLast=0;collapsible=1;marginBottom=0;whiteSpace=wrap;html=1;" vertex="1" parent="1">
          <mxGeometry x="290" y="850" width="480" height="300" as="geometry" />
        </mxCell>
        <mxCell id="fQB4_j-KEd2w4DvYBhpt-17" value="&lt;div&gt;- movie: String &lt;br&gt;&lt;/div&gt;&lt;div&gt;- genre : String &lt;br&gt;&lt;/div&gt;&lt;div&gt;- duration : double &lt;br&gt;&lt;/div&gt;&lt;div&gt;- director : String&lt;/div&gt;&lt;div&gt;&lt;font color=&quot;#3399ff&quot;&gt;- movieSchedule: MovieSchedule[]&lt;/font&gt;&lt;/div&gt;&lt;div&gt;&lt;font color=&quot;#3399ff&quot;&gt;- theater: Theater[]&lt;/font&gt;&lt;/div&gt;" style="text;strokeColor=none;fillColor=none;align=left;verticalAlign=top;spacingLeft=4;spacingRight=4;overflow=hidden;rotatable=0;points=[[0,0.5],[1,0.5]];portConstraint=eastwest;whiteSpace=wrap;html=1;" vertex="1" parent="fQB4_j-KEd2w4DvYBhpt-16">
          <mxGeometry y="26" width="480" height="114" as="geometry" />
        </mxCell>
        <mxCell id="fQB4_j-KEd2w4DvYBhpt-18" value="" style="line;strokeWidth=1;fillColor=none;align=left;verticalAlign=middle;spacingTop=-1;spacingLeft=3;spacingRight=3;rotatable=0;labelPosition=right;points=[];portConstraint=eastwest;strokeColor=inherit;" vertex="1" parent="fQB4_j-KEd2w4DvYBhpt-16">
          <mxGeometry y="140" width="480" height="8" as="geometry" />
        </mxCell>
        <mxCell id="fQB4_j-KEd2w4DvYBhpt-19" value="&lt;div&gt;&lt;font color=&quot;#3399ff&quot;&gt;+ Ticket(title : String, genre : String, duration : double, director : String, seat: Seat, theater: Theater, startTime: DateTime, endTime: DateTime)&amp;nbsp; &lt;br&gt;&lt;/font&gt;&lt;/div&gt;&lt;div&gt;&lt;font color=&quot;#3399ff&quot;&gt;&lt;br&gt;&lt;/font&gt;&lt;/div&gt;&lt;div&gt;&lt;font color=&quot;#3399ff&quot;&gt;+ getTitle(&amp;nbsp; ) : String &lt;br&gt;&lt;/font&gt;&lt;/div&gt;&lt;div&gt;&lt;font color=&quot;#3399ff&quot;&gt;+ getGenre( &amp;nbsp;) : String &lt;br&gt;&lt;/font&gt;&lt;/div&gt;&lt;div&gt;&lt;font color=&quot;#3399ff&quot;&gt;+ getDuration( &amp;nbsp;) : double &lt;br&gt;&lt;/font&gt;&lt;/div&gt;&lt;div&gt;&lt;font color=&quot;#3399ff&quot;&gt;+ getDirector( &amp;nbsp;) : String&lt;/font&gt;&lt;/div&gt;&lt;div&gt;&lt;br&gt;&lt;/div&gt;&lt;div&gt;&lt;br&gt;&lt;/div&gt;&lt;div&gt;&amp;nbsp;&amp;nbsp; &lt;/div&gt;" style="text;strokeColor=none;fillColor=none;align=left;verticalAlign=top;spacingLeft=4;spacingRight=4;overflow=hidden;rotatable=0;points=[[0,0.5],[1,0.5]];portConstraint=eastwest;whiteSpace=wrap;html=1;" vertex="1" parent="fQB4_j-KEd2w4DvYBhpt-16">
          <mxGeometry y="148" width="480" height="152" as="geometry" />
        </mxCell>
        <mxCell id="fQB4_j-KEd2w4DvYBhpt-21" value="&lt;font color=&quot;#3399ff&quot;&gt;0...2&lt;/font&gt;" style="html=1;verticalAlign=bottom;endArrow=diamond;edgeStyle=elbowEdgeStyle;elbow=vertical;curved=0;rounded=0;exitX=-0.003;exitY=0.62;exitDx=0;exitDy=0;exitPerimeter=0;strokeColor=#3399FF;endFill=1;entryX=0.996;entryY=0.303;entryDx=0;entryDy=0;entryPerimeter=0;" edge="1" parent="1" source="2UeZ1jJ89Ma1ybHRojLT-4" target="2UeZ1jJ89Ma1ybHRojLT-12">
          <mxGeometry width="80" relative="1" as="geometry">
            <mxPoint x="940" y="310" as="sourcePoint" />
            <mxPoint x="690" y="210" as="targetPoint" />
            <Array as="points">
              <mxPoint x="690" y="208" />
            </Array>
          </mxGeometry>
        </mxCell>
        <mxCell id="fQB4_j-KEd2w4DvYBhpt-26" value="" style="html=1;verticalAlign=bottom;endArrow=diamond;edgeStyle=elbowEdgeStyle;elbow=vertical;curved=0;rounded=0;exitX=0.481;exitY=0.01;exitDx=0;exitDy=0;exitPerimeter=0;strokeColor=#3399FF;endFill=0;entryX=0.481;entryY=0.01;entryDx=0;entryDy=0;entryPerimeter=0;" edge="1" parent="1" target="fQB4_j-KEd2w4DvYBhpt-16">
          <mxGeometry width="80" relative="1" as="geometry">
            <mxPoint x="522" y="300" as="sourcePoint" />
            <mxPoint x="520" y="800" as="targetPoint" />
          </mxGeometry>
        </mxCell>
        <mxCell id="fQB4_j-KEd2w4DvYBhpt-20" value="" style="html=1;verticalAlign=bottom;endArrow=diamond;edgeStyle=elbowEdgeStyle;elbow=vertical;curved=0;rounded=0;strokeColor=#3399FF;endFill=0;entryX=0.997;entryY=0.007;entryDx=0;entryDy=0;entryPerimeter=0;exitX=0.557;exitY=0.99;exitDx=0;exitDy=0;exitPerimeter=0;" edge="1" parent="1" source="2UeZ1jJ89Ma1ybHRojLT-4" target="fQB4_j-KEd2w4DvYBhpt-19">
          <mxGeometry x="0.0004" width="80" relative="1" as="geometry">
            <mxPoint x="1134.8599999999997" y="100" as="sourcePoint" />
            <mxPoint x="760" y="920" as="targetPoint" />
            <Array as="points">
              <mxPoint x="1180" y="999" />
              <mxPoint x="1140" y="930" />
            </Array>
            <mxPoint as="offset" />
          </mxGeometry>
        </mxCell>
        <mxCell id="fQB4_j-KEd2w4DvYBhpt-23" value="" style="html=1;verticalAlign=bottom;endArrow=diamond;edgeStyle=elbowEdgeStyle;elbow=vertical;curved=0;rounded=0;strokeColor=#3399FF;endFill=0;entryX=1;entryY=0.5;entryDx=0;entryDy=0;exitX=0.684;exitY=0.994;exitDx=0;exitDy=0;exitPerimeter=0;" edge="1" parent="1" source="2UeZ1jJ89Ma1ybHRojLT-16" target="fQB4_j-KEd2w4DvYBhpt-17">
          <mxGeometry width="80" relative="1" as="geometry">
            <mxPoint x="871.76" y="720.0039999999999" as="sourcePoint" />
            <mxPoint x="839.9999999999998" y="880.096" as="targetPoint" />
            <Array as="points">
              <mxPoint x="1040" y="930" />
              <mxPoint x="947.8" y="868.06" />
              <mxPoint x="890" y="878" />
            </Array>
          </mxGeometry>
        </mxCell>
        <mxCell id="fQB4_j-KEd2w4DvYBhpt-25" value="" style="html=1;verticalAlign=bottom;endArrow=diamond;edgeStyle=elbowEdgeStyle;elbow=vertical;curved=0;rounded=0;strokeColor=#3399FF;endFill=0;exitX=0.431;exitY=0.993;exitDx=0;exitDy=0;exitPerimeter=0;entryX=-0.006;entryY=0.099;entryDx=0;entryDy=0;entryPerimeter=0;" edge="1" parent="1" target="fQB4_j-KEd2w4DvYBhpt-19">
          <mxGeometry width="80" relative="1" as="geometry">
            <mxPoint x="179.99999999999991" y="699.9959999999999" as="sourcePoint" />
            <mxPoint x="280" y="1011" as="targetPoint" />
            <Array as="points">
              <mxPoint x="151.91" y="1011.06" />
            </Array>
          </mxGeometry>
        </mxCell>
      </root>
    </mxGraphModel>
  </diagram>
</mxfile>
